<svg width="222" height="213" viewBox="0 0 222 213" fill="none" xmlns="http://www.w3.org/2000/svg">
<path d="M130 0.499993C149 0.499993 165.417 3.99999 179.25 11C193.083 18 203.583 27.8333 210.75 40.5C218.083 53 221.75 67.5833 221.75 84.25C221.75 97.5833 219.417 110.333 214.75 122.5C210.25 134.667 203.667 144.583 195 152.25C186.5 159.917 176.417 163.75 164.75 163.75C156.25 163.75 149.583 161.917 144.75 158.25C139.917 154.417 136.917 149.083 135.75 142.25C130.583 148.917 124.083 154.167 116.25 158C108.417 161.833 100.25 163.75 91.75 163.75C78.9167 163.75 68.8333 159.917 61.5 152.25C54.3333 144.417 50.75 133.833 50.75 120.5C50.75 107.833 53.3333 96 58.5 85C63.8333 74 71.25 65.25 80.75 58.75C90.25 52.0833 100.917 48.75 112.75 48.75C127.25 48.75 137.417 53.6667 143.25 63.5L145.5 51H170.25L157.75 122.5C157.25 126 157 129.083 157 131.75C157 136.083 157.833 139.333 159.5 141.5C161.333 143.667 164.5 144.75 169 144.75C175.333 144.75 180.75 141.667 185.25 135.5C189.75 129.167 193.083 121.417 195.25 112.25C197.583 103.083 198.75 94.1667 198.75 85.5C198.75 64.3333 192.583 48.1667 180.25 37C167.917 25.8333 150 20.25 126.5 20.25C106.833 20.25 89.1667 24.9167 73.5 34.25C58 43.5833 45.8333 56.4167 37 72.75C28.1667 89.0833 23.75 107.25 23.75 127.25C23.75 148.583 30.0833 164.833 42.75 176C55.4167 187.167 73.5 192.75 97 192.75C112.833 192.75 126.667 189.833 138.5 184L142.25 203C127.083 209.5 110.083 212.75 91.25 212.75C73.0833 212.75 57.1667 209.333 43.5 202.5C29.8333 195.667 19.25 185.917 11.75 173.25C4.25 160.75 0.5 146.167 0.5 129.5C0.5 105.667 6 83.9167 17 64.25C28.1667 44.5833 43.5833 29.0833 63.25 17.75C82.9167 6.24999 105.167 0.499993 130 0.499993ZM100.5 141.75C107.5 141.75 113.833 139.75 119.5 135.75C125.333 131.583 129.917 126.167 133.25 119.5C136.583 112.667 138.25 105.417 138.25 97.75C138.25 89.75 136 83.25 131.5 78.25C127.167 73.0833 121 70.5 113 70.5C105.833 70.5 99.5 72.75 94 77.25C88.6667 81.5833 84.5 87.25 81.5 94.25C78.6667 101.25 77.25 108.583 77.25 116.25C77.25 124.083 79.1667 130.333 83 135C86.8333 139.5 92.6667 141.75 100.5 141.75Z" fill="#121212"/>
</svg>
